<?xml version="1.0" encoding="utf-8"?>
<!-- Generator: Adobe Illustrator 19.1.0, SVG Export Plug-In . SVG Version: 6.00 Build 0)  -->
<svg version="1.1" id="Layer_1" xmlns="http://www.w3.org/2000/svg" xmlns:xlink="http://www.w3.org/1999/xlink" x="0px" y="0px"
	 viewBox="-223 31.1 512 498.9" style="enable-background:new -223 31.1 512 498.9;" xml:space="preserve">
<path d="M29.6,31.1h6.7c0,0,252.6,0,252.6,269.5c0,121.3-26.9,161.7-40.4,175.2c0,0-40.4,26.9-26.9-10.1c0-31.2,13.5-97.7,13.5-97.7
	s13.5,0,13.5-67.4c0-80.8-53.9-222.3-202.1-222.3H19.5c-148.2,0-202.1,141.5-202.1,222.3c0,67.4,13.5,67.4,13.5,67.4
	s13.5,66.5,13.5,97.7c13.5,37.1-26.9,10.1-26.9,10.1c-13.5-13.5-40.4-53.9-40.4-175.2C-223,31.1,29.6,31.1,29.6,31.1z M-121.2,302.8
	c22.1-3.1,42.5,12.3,45.7,34.4l20.6,146.8c3.1,22.1-12.3,42.6-34.4,45.7c-22.1,3.1-49.3-12.3-52.4-34.4l-20.6-146.8
	C-165.5,326.3-143.3,305.9-121.2,302.8z M187.2,302.8c22.1,3.1,44.2,23.5,41.1,45.6l-20.6,146.8c-3.1,22.1-30.3,37.5-52.4,34.4
	c-22.1-3.1-37.5-23.6-34.4-45.7l20.6-146.8C144.7,315.1,165.1,299.7,187.2,302.8z"/>
</svg>
