<?xml version="1.0" encoding="utf-8"?>
<!-- Generator: Adobe Illustrator 19.1.0, SVG Export Plug-In . SVG Version: 6.00 Build 0)  -->
<svg version="1.1" id="Capa_1" xmlns="http://www.w3.org/2000/svg" xmlns:xlink="http://www.w3.org/1999/xlink" x="0px" y="0px"
	 viewBox="-447 249 64 64" style="enable-background:new -447 249 64 64;" xml:space="preserve">
<g>
	<g>
		<g id="circle_57_">
			<g>
				<path id="m" d="M-415,249c-17.7,0-32,14.3-32,32s14.3,32,32,32s32-14.3,32-32S-397.3,249-415,249z M-415,311c-16.6,0-30-13.4-30-30
					s13.4-30,30-30s30,13.4,30,30S-398.4,311-415,311z"/>
			</g>
		</g>
		<g id="mouse_1_">
			<g>
				<path d="M-415,286c3.3,0,6-2.7,6-6v-9c0-3.3-2.7-6-6-6s-6,2.7-6,6v9C-421,283.3-418.3,286-415,286z M-419,271c0-2.2,1.8-4,4-4
					s4,1.8,4,4v9c0,2.2-1.8,4-4,4s-4-1.8-4-4V271z M-405,280c0-0.6-0.4-1-1-1s-1,0.4-1,1c0,4.4-3.6,8-8,8s-8-3.6-8-8
					c0-0.6-0.4-1-1-1s-1,0.4-1,1c0,5.2,3.9,9.4,9,9.9v5.1h-3c-0.6,0-1,0.4-1,1s0.4,1,1,1h8c0.6,0,1-0.4,1-1s-0.4-1-1-1h-3v-5.1
					C-408.9,289.4-405,285.2-405,280z"/>
			</g>
		</g>
	</g>
</g>
</svg>
